<svg width="14" height="12" viewBox="0 0 14 12" fill="none" xmlns="http://www.w3.org/2000/svg">
<path fill-rule="evenodd" clip-rule="evenodd" d="M0.328125 0.790569C0.328125 0.491415 0.570637 0.248902 0.869792 0.248902L13.1302 0.248901C13.4294 0.248901 13.6719 0.491414 13.6719 0.790568C13.6719 1.08972 13.4294 1.33223 13.1302 1.33223L0.869792 1.33224C0.570637 1.33224 0.328125 1.08972 0.328125 0.790569Z" fill="#505050"/>
<path fill-rule="evenodd" clip-rule="evenodd" d="M0.328125 11.3041C0.328125 11.0049 0.570637 10.7624 0.869792 10.7624L13.1302 10.7624C13.4294 10.7624 13.6719 11.0049 13.6719 11.3041C13.6719 11.6032 13.4294 11.8457 13.1302 11.8457L0.869792 11.8457C0.570637 11.8457 0.328125 11.6032 0.328125 11.3041Z" fill="#505050"/>
<path fill-rule="evenodd" clip-rule="evenodd" d="M0.328159 6.00002C0.328159 5.70087 0.570671 5.45835 0.869825 5.45835L13.1303 5.45835C13.4294 5.45835 13.6719 5.70087 13.6719 6.00002C13.6719 6.29917 13.4294 6.54169 13.1303 6.54169L0.869825 6.54169C0.570671 6.54169 0.328159 6.29918 0.328159 6.00002Z" fill="#505050"/>
</svg>
