<svg width="18" height="18" viewBox="0 0 18 18" fill="none" xmlns="http://www.w3.org/2000/svg">
<path fill-rule="evenodd" clip-rule="evenodd" d="M0.00437927 5.64713L0.00784476 2.55458C0.140905 1.13281 2.55069 0 5.50392 0C5.7274 0 5.94777 0.00648684 6.16427 0.0190949C8.73257 0.167784 10.7561 1.1677 10.9795 2.41506C10.9888 2.46123 10.9956 2.50775 11 2.55458L11 4.92896C11 5.27842 10.706 5.55582 10.3565 5.5604C10.0003 5.56507 9.7 5.28487 9.7 4.92857V4.35282C8.69112 4.92606 7.18393 5.29 5.5 5.29C3.81957 5.29 2.31515 4.92757 1.3063 4.35639L1.30519 5.64713H1.30695C1.32232 5.6915 1.42964 5.98563 2.17866 6.34585C2.81675 6.65273 3.9668 6.92628 5.11016 7.01738C5.24612 7.02822 5.38164 7.03614 5.51619 7.04132C5.80146 7.05229 5.91425 7.59022 5.74066 7.81686C5.49853 8.13301 5.18181 8.33502 4.7855 8.29613C3.43867 8.16397 2.18795 7.79329 1.30378 7.28559L1.30261 8.64713H1.30694C1.32231 8.6915 1.42964 8.98563 2.17865 9.34585C2.74625 9.61883 3.78971 9.83534 4.7863 9.93403C5.1323 9.96829 5.40538 10.2534 5.40538 10.6011C5.40538 10.972 5.09566 11.2699 4.7266 11.2324C3.4039 11.0978 2.17406 10.7442 1.30123 10.2563L1.30005 11.6228C1.30191 11.6301 1.30561 11.6413 1.31301 11.6571C1.32876 11.6907 1.36242 11.747 1.43061 11.8215C1.57204 11.9762 1.82374 12.1673 2.21539 12.3534C2.78025 12.6218 3.81773 12.8336 4.7992 12.9309C5.14515 12.9652 5.41815 13.2503 5.41815 13.5979C5.41815 13.969 5.10838 14.2669 4.73929 14.2291C2.24775 13.974 0.0665297 12.9347 0 11.681L0.00515094 5.68851C0.00463742 5.67473 0.00437942 5.66094 0.00437927 5.64713ZM8.76002 1.92228C8.09246 1.61092 7.16187 1.37849 6.08112 1.31644C5.89249 1.30568 5.69924 1.30004 5.50197 1.3C4.17666 1.30025 3.03115 1.55692 2.24782 1.92228C1.85619 2.10494 1.59884 2.29423 1.45003 2.4509C1.37799 2.52674 1.34022 2.58557 1.3214 2.62283C1.3149 2.63569 1.3106 2.64604 1.30776 2.65405L1.30776 2.65898C1.33747 2.73351 1.48101 3.01031 2.17433 3.34373C2.95819 3.7207 4.13243 3.99 5.5 3.99C6.86757 3.99 8.04181 3.7207 8.82567 3.34373C9.56898 2.98627 9.68037 2.69389 9.69706 2.64607C9.69442 2.6395 9.69097 2.63177 9.68645 2.62283C9.66762 2.58557 9.62985 2.52674 9.55782 2.4509C9.40901 2.29423 9.15165 2.10494 8.76002 1.92228Z" fill="#505050"/>
<path fill-rule="evenodd" clip-rule="evenodd" d="M6.94908 15.3163L6.94908 12.4271C6.94678 12.3957 6.94562 12.3641 6.94562 12.3324H6.94908L6.94908 9.28429C6.95242 9.248 6.95719 9.2119 6.96335 9.17599C7.12397 7.78449 9.52115 6.67993 12.4548 6.67993C15.4923 6.67993 17.9548 7.86414 17.9548 9.32493C17.9548 9.38714 17.9503 9.44884 17.9415 9.50997L17.9491 15.3163C17.8723 16.7894 15.4393 17.9718 12.4491 17.9718C9.4589 17.9718 7.02586 16.7894 6.94908 15.3163ZM8.26475 9.34433C8.32223 9.22334 8.5253 8.93432 9.19723 8.61522C9.97883 8.24404 11.1221 7.98326 12.4452 7.98326C13.7682 7.98326 14.9115 8.24404 15.6931 8.61522C16.4086 8.95501 16.5925 9.26071 16.635 9.36571C16.5848 9.46688 16.4075 9.72212 15.7805 10.0237C14.9966 10.4006 13.8224 10.6699 12.4548 10.6699C11.0872 10.6699 9.91297 10.4006 9.12911 10.0237C8.4516 9.69784 8.29908 9.4261 8.26475 9.34433ZM8.24908 11.0295C9.25799 11.6046 10.7677 11.9699 12.4548 11.9699C14.1325 11.9699 15.6347 11.6087 16.6435 11.0391L16.6452 12.3324H16.6426C16.6272 12.3767 16.5199 12.6709 15.7709 13.0311C14.9871 13.4081 13.8129 13.6774 12.4454 13.6774C11.0779 13.6774 9.90372 13.4081 9.1199 13.0311C8.384 12.6772 8.26752 12.3871 8.24908 12.3349V11.0295ZM12.4454 14.9774C10.7635 14.9774 9.25791 14.6143 8.24908 14.0422V15.2571C8.26348 15.3138 8.38237 15.6438 9.17271 16.0262C9.95412 16.4042 11.1088 16.6718 12.4491 16.6718C13.7893 16.6718 14.944 16.4042 15.7255 16.0262C16.5144 15.6445 16.6343 15.315 16.649 15.2574L16.6474 14.0389C15.6386 14.6129 14.1305 14.9774 12.4454 14.9774Z" fill="#505050"/>
</svg>
