<svg width="20" height="20" viewBox="0 0 20 20" fill="none" xmlns="http://www.w3.org/2000/svg">
<path fill-rule="evenodd" clip-rule="evenodd" d="M16.6186 1.34691L18.6531 3.38145L16.6186 5.41599L14.5841 3.38145L16.6186 1.34691ZM15.7795 0.347589C16.2429 -0.115863 16.9943 -0.115863 17.4578 0.347589L19.6525 2.5423C20.1159 3.00575 20.1159 3.75715 19.6525 4.2206L17.4578 6.41531C16.9943 6.87877 16.2429 6.87877 15.7795 6.41531L13.5847 4.2206C13.1213 3.75715 13.1213 3.00575 13.5847 2.5423L15.7795 0.347589ZM5.10601 1.68144L1.70601 1.68144L1.70601 5.08144H5.10601V1.68144ZM16.6186 14.9266C15.6797 14.9266 14.9186 15.6877 14.9186 16.6266C14.9186 17.5655 15.6797 18.3266 16.6186 18.3266C17.5575 18.3266 18.3186 17.5655 18.3186 16.6266C18.3186 15.6877 17.5575 14.9266 16.6186 14.9266ZM0.406006 1.68144C0.406006 0.963469 0.988036 0.381439 1.70601 0.381439H5.10601C5.82398 0.381439 6.40601 0.963469 6.40601 1.68144V5.08144C6.40601 5.79941 5.82398 6.38144 5.10601 6.38144H1.70601C0.988036 6.38144 0.406006 5.79941 0.406006 5.08144V1.68144ZM16.6186 13.6266C14.9617 13.6266 13.6186 14.9698 13.6186 16.6266C13.6186 18.2835 14.9617 19.6266 16.6186 19.6266C18.2754 19.6266 19.6186 18.2835 19.6186 16.6266C19.6186 14.9698 18.2754 13.6266 16.6186 13.6266Z" fill="#505050"/>
<path d="M16.6185 8.0586C16.9775 8.0586 17.2685 8.34962 17.2685 8.7086V11.6722C17.2685 12.0311 16.9775 12.3222 16.6185 12.3222C16.2595 12.3222 15.9685 12.0311 15.9685 11.6722V8.7086C15.9685 8.34962 16.2595 8.0586 16.6185 8.0586Z" fill="#505050"/>
<path d="M8.35707 2.73141C7.99808 2.73141 7.70707 3.02243 7.70707 3.38141C7.70707 3.7404 7.99808 4.03141 8.35707 4.03141H11.2875C11.6465 4.03141 11.9375 3.7404 11.9375 3.38141C11.9375 3.02243 11.6465 2.73141 11.2875 2.73141H8.35707Z" fill="#505050"/>
<path d="M9.73998 15.9585L8.22699 14.4965C7.97315 14.2426 7.97315 13.8311 8.22699 13.5772C8.48083 13.3234 8.89239 13.3234 9.14623 13.5772L12.1222 16.1489C12.376 16.4027 12.376 16.8142 12.1222 17.0681L9.15405 19.6319C8.9002 19.8857 8.48865 19.8857 8.23481 19.6319C7.98096 19.3781 7.98096 18.9665 8.23481 18.7127L9.73904 17.2594H6.41162C4.39578 17.2594 2.76162 15.6252 2.76162 13.6094V8.33203C2.76162 7.97305 3.05264 7.68203 3.41162 7.68203C3.77061 7.68203 4.06162 7.97305 4.06162 8.33203V13.6094C4.06162 14.9072 5.11375 15.9594 6.41162 15.9594L9.73998 15.9585Z" fill="#505050"/>
</svg>
