<svg width="16" height="20" viewBox="0 0 16 20" fill="none" xmlns="http://www.w3.org/2000/svg">
<path fill-rule="evenodd" clip-rule="evenodd" d="M4.88002 11.65C4.13104 11.65 3.53002 12.251 3.53002 13V14.32C3.53002 15.069 4.13104 15.67 4.88002 15.67H7.20002C7.94901 15.67 8.55002 15.069 8.55002 14.32V13C8.55002 12.251 7.94901 11.65 7.20002 11.65H4.88002ZM4.83002 13C4.83002 12.9812 4.83633 12.9705 4.84339 12.9634C4.85046 12.9563 4.86122 12.95 4.88002 12.95H7.20002C7.21883 12.95 7.22959 12.9563 7.23665 12.9634C7.24372 12.9705 7.25002 12.9812 7.25002 13V14.32C7.25002 14.3388 7.24372 14.3496 7.23665 14.3566C7.22959 14.3637 7.21883 14.37 7.20002 14.37H4.88002C4.86122 14.37 4.85046 14.3637 4.84339 14.3566C4.83633 14.3496 4.83002 14.3388 4.83002 14.32V13Z" fill="#505050"/>
<path fill-rule="evenodd" clip-rule="evenodd" d="M4.78998 1.60001C4.78998 1.24103 4.49896 0.950012 4.13998 0.950012C3.78099 0.950012 3.48998 1.24103 3.48998 1.60001V2.99002H3C1.34 2.99002 0 4.33002 0 5.99002V16.12C0 17.78 1.34 19.12 3 19.12H13C14.66 19.12 16 17.78 16 16.12V5.99002C16 4.33002 14.65 2.99002 13 2.99002H12.5V1.60001C12.5 1.24103 12.209 0.950012 11.85 0.950012C11.491 0.950012 11.2 1.24103 11.2 1.60001V2.99002H8.64999V1.60001C8.64999 1.24103 8.35898 0.950012 7.99999 0.950012C7.64101 0.950012 7.34999 1.24103 7.34999 1.60001V2.99002H4.78998V1.60001ZM3.48998 4.29002V5.86001C3.48998 6.219 3.78099 6.51001 4.13998 6.51001C4.49896 6.51001 4.78998 6.219 4.78998 5.86001V4.29002H7.34999V5.86001C7.34999 6.219 7.64101 6.51001 7.99999 6.51001C8.35898 6.51001 8.64999 6.219 8.64999 5.86001V4.29002H11.2V5.86001C11.2 6.219 11.491 6.51001 11.85 6.51001C12.209 6.51001 12.5 6.219 12.5 5.86001V4.29002H13C13.94 4.29002 14.7 5.05002 14.7 5.99002V8.35003H1.3V5.99002C1.3 5.05002 2.06 4.29002 3 4.29002H3.48998ZM1.3 9.65003H14.7V16.12C14.7 17.06 13.94 17.82 13 17.82H3C2.06 17.82 1.3 17.06 1.3 16.12V9.65003Z" fill="#505050"/>
</svg>
