<svg width="18" height="16" viewBox="0 0 18 16" fill="none" xmlns="http://www.w3.org/2000/svg">
<path fill-rule="evenodd" clip-rule="evenodd" d="M7.18979 0.5C4.96892 0.5 3.24282 2.43335 3.49358 4.64002L3.71195 6.56165C3.91295 8.33047 5.40959 9.66667 7.18979 9.66667C8.97 9.66667 10.4666 8.33047 10.6676 6.56165L10.886 4.64002C11.1368 2.43335 9.41066 0.5 7.18979 0.5ZM9.59123 6.43933L9.8096 4.5177C9.98733 2.95366 8.7639 1.58333 7.18979 1.58333C5.61568 1.58333 4.39226 2.95366 4.56999 4.5177L4.78835 6.43933C4.92715 7.66069 5.96057 8.58333 7.18979 8.58333C8.41902 8.58333 9.45244 7.6607 9.59123 6.43933Z" fill="#505050"/>
<path fill-rule="evenodd" clip-rule="evenodd" d="M5.64509 10.5C3.3016 10.5 1.27253 12.1277 0.764159 14.4153L0.680876 14.7901C0.59992 15.1544 0.877132 15.5 1.25032 15.5H13.1293C13.5025 15.5 13.7797 15.1544 13.6987 14.7901L13.6154 14.4153C13.107 12.1277 11.078 10.5 8.73449 10.5H5.64509ZM12.4984 14.4167C12.0192 12.7485 10.4894 11.5833 8.73449 11.5833H5.64509C3.8902 11.5833 2.3604 12.7485 1.88116 14.4167H12.4984Z" fill="#505050"/>
<path d="M10.8104 9.66667C10.4936 9.66667 10.3806 9.28186 10.579 9.03488C10.6181 8.98624 10.6562 8.93677 10.6933 8.8865C10.8301 8.70126 11.0395 8.58358 11.2657 8.54037C12.2865 8.34532 13.0906 7.50632 13.2118 6.43933L13.4302 4.5177C13.5809 3.19109 12.7236 2.00386 11.4993 1.67396C11.2056 1.59482 10.932 1.43896 10.7408 1.20237C10.6994 1.1512 10.6571 1.10088 10.6137 1.05145C10.4294 0.841598 10.5311 0.5 10.8104 0.5C13.0312 0.5 14.7573 2.43335 14.5066 4.64002L14.2882 6.56165C14.0872 8.33047 12.5906 9.66667 10.8104 9.66667Z" fill="#505050"/>
<path d="M15.0953 15.5C14.8098 15.5 14.6062 15.207 14.6031 14.9215C14.6002 14.6599 14.7874 14.4167 15.049 14.4167H16.119C15.7548 13.149 14.784 12.1718 13.5688 11.7757C13.3949 11.719 13.2482 11.637 13.1356 11.4929C12.8327 11.105 13.0968 10.5305 13.5741 10.6503C15.375 11.1027 16.8185 12.5364 17.236 14.4153L17.3193 14.7901C17.4002 15.1544 17.123 15.5 16.7498 15.5H15.0953Z" fill="#505050"/>
</svg>
