<svg width="18" height="18" viewBox="0 0 18 18" fill="none" xmlns="http://www.w3.org/2000/svg">
<path d="M4.86938 7.18433C4.51039 7.18433 4.21938 6.89331 4.21938 6.53433V5.68422H3.36938C3.01039 5.68422 2.71938 5.3932 2.71938 5.03422C2.71938 4.67523 3.01039 4.38422 3.36938 4.38422H4.21938V3.53433C4.21938 3.17534 4.51039 2.88433 4.86938 2.88433C5.22836 2.88433 5.51938 3.17534 5.51938 3.53433V4.38422H6.36938C6.72836 4.38422 7.01938 4.67523 7.01938 5.03422C7.01938 5.3932 6.72836 5.68422 6.36938 5.68422H5.51938V6.53433C5.51938 6.89331 5.22836 7.18433 4.86938 7.18433Z" fill="#5095EC"/>
<path d="M6.38966 14.6766C6.13582 14.9305 5.72426 14.9305 5.47042 14.6766L4.86931 14.0755L4.26828 14.6765C4.01444 14.9304 3.60288 14.9304 3.34904 14.6765C3.0952 14.4227 3.0952 14.0111 3.34904 13.7573L3.95007 13.1563L3.3491 12.5553C3.09526 12.3014 3.09526 11.8899 3.3491 11.6361C3.60294 11.3822 4.0145 11.3822 4.26834 11.6361L4.86931 12.237L5.47036 11.636C5.7242 11.3821 6.13576 11.3821 6.3896 11.636C6.64344 11.8898 6.64344 12.3014 6.3896 12.5552L5.78855 13.1563L6.38966 13.7574C6.6435 14.0112 6.6435 14.4228 6.38966 14.6766Z" fill="#5095EC"/>
<path d="M12.2561 11.4544C11.8971 11.4544 11.6061 11.7454 11.6061 12.1044C11.6061 12.4634 11.8971 12.7544 12.2561 12.7544H14.2561C14.6151 12.7544 14.9061 12.4634 14.9061 12.1044C14.9061 11.7454 14.6151 11.4544 14.2561 11.4544H12.2561Z" fill="#5095EC"/>
<path d="M11.6061 14.1405C11.6061 13.7816 11.8971 13.4905 12.2561 13.4905H14.2561C14.6151 13.4905 14.9061 13.7816 14.9061 14.1405C14.9061 14.4995 14.6151 14.7905 14.2561 14.7905H12.2561C11.8971 14.7905 11.6061 14.4995 11.6061 14.1405Z" fill="#5095EC"/>
<path d="M11.6061 5.03428C11.6061 4.67529 11.8971 4.38428 12.2561 4.38428H14.2561C14.6151 4.38428 14.9061 4.67529 14.9061 5.03428C14.9061 5.39326 14.6151 5.68428 14.2561 5.68428H12.2561C11.8971 5.68428 11.6061 5.39326 11.6061 5.03428Z" fill="#5095EC"/>
<path fill-rule="evenodd" clip-rule="evenodd" d="M15 18C16.6569 18 18 16.6569 18 15V3C18 1.34315 16.6569 0 15 0H3C1.4467 0 0.169119 1.1805 0.0154887 2.69327C0.00524668 2.79412 0 2.89645 0 3V15C0 16.6569 1.34315 18 3 18H15ZM1.3 3C1.3 2.06112 2.06112 1.3 3 1.3L8.35217 1.3V8.34625H1.3V3ZM1.3 9.64625V15C1.3 15.9389 2.06112 16.7 3 16.7H8.35217V9.64625H1.3ZM9.65217 16.7H15C15.9389 16.7 16.7 15.9389 16.7 15V9.64625H9.65217V16.7ZM16.7 8.34625V3C16.7 2.06112 15.9389 1.3 15 1.3H9.65217V8.34625H16.7Z" fill="#5095EC"/>
</svg>
