<svg width="12" height="16" viewBox="0 0 12 16" fill="none" xmlns="http://www.w3.org/2000/svg">
<path fill-rule="evenodd" clip-rule="evenodd" d="M2.5417 6.41664C2.5417 4.50665 4.09005 2.9583 6.00003 2.9583C7.91002 2.9583 9.45836 4.50665 9.45836 6.41664C9.45836 8.32662 7.91002 9.87497 6.00003 9.87497C4.09005 9.87497 2.5417 8.32662 2.5417 6.41664ZM6.00003 4.04164C4.68835 4.04164 3.62503 5.10496 3.62503 6.41664C3.62503 7.72831 4.68835 8.79164 6.00003 8.79164C7.31171 8.79164 8.37503 7.72831 8.37503 6.41664C8.37503 5.10496 7.31171 4.04164 6.00003 4.04164Z" fill="#505050"/>
<path fill-rule="evenodd" clip-rule="evenodd" d="M5.68634 0.608257C8.41347 0.443564 11.3102 2.03315 11.7406 5.55589C11.7709 5.80397 11.7892 6.03466 11.7921 6.24238C11.8078 7.36434 11.4512 8.49954 10.9411 9.54863C10.4292 10.6015 9.74681 11.5998 9.07244 12.4576C8.39689 13.3169 7.72095 14.0456 7.2144 14.5594C6.93681 14.8409 6.65546 15.1194 6.35965 15.3819C6.15463 15.5635 5.84571 15.563 5.6407 15.3814C5.64086 15.3815 5.67787 15.3403 5.6407 15.3814C5.34557 15.1186 5.06394 14.8407 4.78654 14.5594C4.27999 14.0456 3.60406 13.3169 2.92851 12.4576C2.25415 11.5998 1.57181 10.6015 1.05988 9.54863C0.549778 8.49954 0.193163 7.36434 0.208873 6.24238C0.258508 2.69784 2.9605 0.772871 5.68634 0.608257ZM6.00047 14.2359C5.8776 14.1178 5.72773 13.9709 5.55793 13.7987C5.07129 13.3052 4.42416 12.6072 3.78016 11.788C3.13498 10.9674 2.50131 10.0357 2.03415 9.07491C1.56517 8.11038 1.27963 7.14838 1.2921 6.25755C1.33217 3.39631 3.46793 1.82753 5.75164 1.68962C8.03407 1.55178 10.3187 2.8509 10.6653 5.68727C10.6924 5.90942 10.7067 6.09961 10.7089 6.25755C10.7213 7.14838 10.4358 8.11038 9.96682 9.0749C9.49966 10.0357 8.86598 10.9674 8.22079 11.788C7.57679 12.6072 6.92965 13.3052 6.44302 13.7987C6.27321 13.9709 6.12334 14.1178 6.00047 14.2359Z" fill="#505050"/>
</svg>
