<svg width="15" height="17" viewBox="0 0 15 17" fill="none" xmlns="http://www.w3.org/2000/svg">
<path fill-rule="evenodd" clip-rule="evenodd" d="M11.7083 0.791748C13.089 0.791748 14.2083 1.91104 14.2083 3.29175V11.6251C14.2083 13.0058 13.089 14.1251 11.7083 14.1251H5.04158C3.66087 14.1251 2.54158 13.0058 2.54158 11.6251V3.29175C2.54158 1.91104 3.66087 0.791748 5.04158 0.791748H11.7083ZM5.04158 1.87508H11.7083C12.4907 1.87508 13.1249 2.50934 13.1249 3.29175V11.6251C13.1249 12.4075 12.4907 13.0417 11.7083 13.0417H5.04158C4.25918 13.0417 3.62492 12.4075 3.62492 11.6251V3.29175C3.62492 2.50934 4.25918 1.87508 5.04158 1.87508ZM0.333252 5.79175C0.333252 5.49259 0.575763 5.25008 0.874918 5.25008C1.17407 5.25008 1.41658 5.49259 1.41658 5.79175V13.6251C1.41658 14.5225 2.14412 15.2501 3.04158 15.2501H10.0416C10.3407 15.2501 10.5833 15.4926 10.5833 15.7917C10.5833 16.0909 10.3407 16.3334 10.0416 16.3334H3.04158C1.54581 16.3334 0.333252 15.1209 0.333252 13.6251V5.79175ZM8.68702 4.58132C8.68702 4.88047 8.44451 5.12298 8.14536 5.12298L5.89189 5.12298C5.59273 5.12298 5.35022 4.88046 5.35022 4.58131C5.35022 4.28215 5.59273 4.03964 5.89189 4.03964L8.14536 4.03965C8.44451 4.03965 8.68702 4.28216 8.68702 4.58132ZM10.8568 8.04788C11.1559 8.04788 11.3984 7.80537 11.3984 7.50622C11.3984 7.20706 11.1559 6.96455 10.8568 6.96455L5.89189 6.96455C5.59273 6.96455 5.35022 7.20706 5.35022 7.50622C5.35022 7.80537 5.59273 8.04788 5.89189 8.04788L10.8568 8.04788ZM11.3984 10.4311C11.3984 10.7303 11.1559 10.9728 10.8568 10.9728L5.89189 10.9728C5.59273 10.9728 5.35022 10.7303 5.35022 10.4311C5.35022 10.132 5.59273 9.88948 5.89189 9.88948L10.8568 9.88948C11.1559 9.88948 11.3984 10.132 11.3984 10.4311Z" fill="#505050"/>
</svg>
