<svg width="15" height="17" viewBox="0 0 15 17" fill="none" xmlns="http://www.w3.org/2000/svg">
<path fill-rule="evenodd" clip-rule="evenodd" d="M4.74386 4.79164C4.74386 5.94223 5.6766 6.87497 6.82719 6.87497C7.97778 6.87497 8.91052 5.94223 8.91052 4.79164C8.91052 3.64104 7.97778 2.7083 6.82719 2.7083C5.6766 2.7083 4.74386 3.64104 4.74386 4.79164ZM5.82719 4.79164C5.82719 5.34392 6.2749 5.79164 6.82719 5.79164C7.37947 5.79164 7.82719 5.34392 7.82719 4.79164C7.82719 4.23935 7.37947 3.79164 6.82719 3.79164C6.2749 3.79164 5.82719 4.23935 5.82719 4.79164Z" fill="#505050"/>
<path fill-rule="evenodd" clip-rule="evenodd" d="M14.2083 3C14.2083 1.61929 13.089 0.5 11.7083 0.5H5.04158C3.66087 0.5 2.54158 1.61929 2.54158 3V11.3333C2.54158 12.714 3.66087 13.8333 5.04158 13.8333H5.04261L5.04158 13.835H11.7083C13.089 13.835 14.2083 12.7157 14.2083 11.335V3ZM11.7083 12.75C12.4907 12.75 13.1249 12.1157 13.1249 11.3333V10.1626L11.6465 8.02417C11.2009 7.37965 10.2396 7.40675 9.83099 8.07534L6.97425 12.75H11.7083ZM12.5376 7.4081L13.1249 8.25763V3C13.1249 2.2176 12.4907 1.58333 11.7083 1.58333H5.04158C4.25918 1.58333 3.62492 2.2176 3.62492 3V11.3333C3.62492 12.1157 4.25918 12.75 5.04158 12.75H5.70465L8.9066 7.51043C9.72377 6.17325 11.6464 6.11907 12.5376 7.4081Z" fill="#505050"/>
<path d="M0.874918 4.95833C0.575763 4.95833 0.333252 5.20085 0.333252 5.5V13.3333C0.333252 14.8291 1.54581 16.0417 3.04159 16.0417H10.0416C10.3407 16.0417 10.5833 15.7992 10.5833 15.5C10.5833 15.2008 10.3407 14.9583 10.0416 14.9583H3.04159C2.14412 14.9583 1.41658 14.2308 1.41658 13.3333V5.5C1.41658 5.20085 1.17407 4.95833 0.874918 4.95833Z" fill="#505050"/>
</svg>
