<svg width="16" height="18" viewBox="0 0 16 18" fill="none" xmlns="http://www.w3.org/2000/svg">
<path fill-rule="evenodd" clip-rule="evenodd" d="M3.56456 4.96802C3.26365 2.32002 5.33497 0 8.00002 0C10.6651 0 12.7364 2.32002 12.4355 4.96803L12.1734 7.27398C11.9322 9.39657 10.1363 11 8.00002 11C5.86377 11 4.06781 9.39656 3.8266 7.27398L3.56456 4.96802ZM11.1438 4.82124L10.8817 7.1272C10.7152 8.59283 9.47509 9.7 8.00002 9.7C6.52495 9.7 5.28484 8.59283 5.11829 7.1272L4.85625 4.82124C4.64297 2.94439 6.11108 1.3 8.00002 1.3C9.88895 1.3 11.3571 2.94439 11.1438 4.82124Z" fill="#505050"/>
<path fill-rule="evenodd" clip-rule="evenodd" d="M0.289257 16.6984C0.899307 13.9532 3.33419 12 6.14638 12H9.85366C12.6658 12 15.1007 13.9532 15.7108 16.6984L15.8107 17.1481C15.9079 17.5853 15.5752 18 15.1274 18H0.872647C0.424824 18 0.0921699 17.5853 0.189317 17.1481L0.289257 16.6984ZM9.85366 13.3C11.9595 13.3 13.7953 14.6982 14.3704 16.7H1.62966C2.20474 14.6982 4.04051 13.3 6.14638 13.3H9.85366Z" fill="#505050"/>
</svg>
