<svg width="14" height="18" viewBox="0 0 14 18" fill="none" xmlns="http://www.w3.org/2000/svg">
<path d="M3.65023 3.99888C3.29112 3.99888 3 4.28976 3 4.64858C3 5.00739 3.29112 5.29827 3.65023 5.29827H10.3527C10.7118 5.29827 11.0029 5.00739 11.0029 4.64858C11.0029 4.28976 10.7118 3.99888 10.3527 3.99888H3.65023Z" fill="#5095EC"/>
<path d="M3 7.64718C3 7.28836 3.29112 6.99748 3.65023 6.99748H10.3526C10.7118 6.99748 11.0029 7.28836 11.0029 7.64718C11.0029 8.006 10.7118 8.29688 10.3526 8.29688H3.65023C3.29112 8.29688 3 8.006 3 7.64718Z" fill="#5095EC"/>
<path d="M3 10.6458C3 10.287 3.29112 9.99609 3.65023 9.99609H6.8514C7.21051 9.99609 7.50163 10.287 7.50163 10.6458C7.50163 11.0046 7.21051 11.2955 6.8514 11.2955H3.65023C3.29112 11.2955 3 11.0046 3 10.6458Z" fill="#5095EC"/>
<path fill-rule="evenodd" clip-rule="evenodd" d="M0 16.3936L0.00892674 2.59989C0.00892674 1.16462 1.1734 0.00109863 2.60986 0.00109863H11.3991C12.8355 0.00109863 14 1.16462 14 2.59989L13.9911 16.3991C13.9911 17.6529 12.6129 18.4191 11.5467 17.7581L9.87153 16.7196C9.66344 16.5906 9.39786 16.601 9.20046 16.7458L7.91232 17.6909C7.34861 18.1045 6.58141 18.1045 6.01768 17.6909L4.73916 16.7529C4.54025 16.607 4.27229 16.5976 4.06373 16.7294L2.45607 17.7453C1.39034 18.4187 0 17.6536 0 16.3936ZM12.6911 16.3983L12.7 2.59989C12.7 1.8836 12.1186 1.3011 11.3991 1.3011H2.60986C1.89036 1.3011 1.30893 1.88444 1.30893 2.60073L1.3 16.3939C1.30021 16.6278 1.55998 16.7737 1.76164 16.6463L3.3693 15.6304C4.02973 15.2131 4.87828 15.2426 5.50817 15.7047L6.78669 16.6428C6.89273 16.7205 7.03728 16.7205 7.14331 16.6428L8.43145 15.6977C9.05653 15.2391 9.89756 15.2062 10.5565 15.6147L12.2316 16.6532C12.4335 16.7783 12.6911 16.6312 12.6911 16.3983Z" fill="#5095EC"/>
</svg>
