<svg width="16" height="16" viewBox="0 0 16 16" fill="none" xmlns="http://www.w3.org/2000/svg">
<path fill-rule="evenodd" clip-rule="evenodd" d="M11.3335 8.00004C11.3335 9.84099 9.84107 11.3334 8.00012 11.3334C6.15917 11.3334 4.66678 9.84099 4.66678 8.00004C4.66678 6.15909 6.15917 4.66671 8.00012 4.66671C9.84107 4.66671 11.3335 6.15909 11.3335 8.00004ZM10.2501 8.00004C10.2501 9.24268 9.24276 10.25 8.00012 10.25C6.75748 10.25 5.75012 9.24268 5.75012 8.00004C5.75012 6.7574 6.75748 5.75004 8.00012 5.75004C9.24276 5.75004 10.2501 6.7574 10.2501 8.00004Z" fill="#505050"/>
<path fill-rule="evenodd" clip-rule="evenodd" d="M7.15266 0.50415C6.41457 0.50415 5.78951 1.04844 5.68803 1.77953C5.56219 2.6862 4.61659 3.23214 3.76847 2.88779C3.08459 2.61012 2.30069 2.87929 1.93165 3.5185L1.13437 4.89944C0.769797 5.53089 0.919945 6.33384 1.48806 6.79088C2.22273 7.38192 2.21064 8.52174 1.45639 9.10895C0.873987 9.56237 0.715143 10.3758 1.08419 11.015L1.88147 12.396C2.24604 13.0274 3.01649 13.2989 3.69636 13.0354C4.57555 12.6947 5.55662 13.2751 5.68803 14.2219C5.78951 14.9529 6.41457 15.4972 7.15266 15.4972H8.74722C9.47637 15.4972 10.0967 14.9657 10.2084 14.2452C10.3604 13.2654 11.3793 12.6771 12.3039 13.0354C12.9837 13.2989 13.7542 13.0274 14.1188 12.396L14.916 11.015C15.2851 10.3758 15.1262 9.56237 14.5438 9.10895C13.7896 8.52174 13.7775 7.38192 14.5122 6.79088C15.0803 6.33384 15.2304 5.53089 14.8659 4.89944L14.0686 3.5185C13.6995 2.87929 12.9156 2.61012 12.2318 2.88779C11.3461 3.24738 10.3529 2.68794 10.2084 1.75618C10.0967 1.03566 9.47636 0.50415 8.74722 0.50415H7.15266ZM6.76108 1.92847C6.78821 1.73301 6.95533 1.58748 7.15266 1.58748L8.74722 1.58748C8.94217 1.58748 9.10801 1.72959 9.13789 1.92223C9.39152 3.55743 11.1181 4.50916 12.6393 3.89154C12.8221 3.81731 13.0317 3.88927 13.1304 4.06017L13.9277 5.4411C14.0251 5.60993 13.985 5.8246 13.8331 5.9468C12.5438 6.98405 12.5829 8.9552 13.8783 9.96377C14.034 10.085 14.0765 10.3025 13.9778 10.4734L13.1806 11.8543C13.0831 12.0231 12.8771 12.0957 12.6953 12.0253C11.1257 11.417 9.3959 12.4157 9.13789 14.0792C9.10801 14.2718 8.94217 14.4139 8.74722 14.4139H7.15266C6.95533 14.4139 6.78821 14.2684 6.76108 14.0729C6.53537 12.4467 4.84784 11.4273 3.30489 12.0253C3.12312 12.0957 2.91714 12.0231 2.81967 11.8543L2.02239 10.4734C1.92372 10.3025 1.96619 10.085 2.1219 9.96377C3.41736 8.9552 3.45644 6.98405 2.16712 5.9468C2.01523 5.8246 1.97509 5.60993 2.07256 5.4411L2.86984 4.06017C2.96851 3.88927 3.17809 3.81731 3.36093 3.89154C4.86322 4.50149 6.53817 3.53446 6.76108 1.92847Z" fill="#505050"/>
</svg>
