<svg width="18" height="17" viewBox="0 0 18 17" fill="none" xmlns="http://www.w3.org/2000/svg">
<path fill-rule="evenodd" clip-rule="evenodd" d="M16.0281 15.6972V7.99094C16.0281 6.91399 15.1551 6.04094 14.0781 6.04094C13.0011 6.04094 12.1281 6.91399 12.1281 7.99094L12.1281 15.6972H10.9501V12.5534C10.9501 11.4765 10.077 10.6034 9.00009 10.6034C7.92314 10.6034 7.05009 11.4765 7.05009 12.5534V15.6972H5.87197L5.87197 9.99094C5.87197 8.91399 4.99892 8.04094 3.92197 8.04094C2.84501 8.04094 1.97197 8.91399 1.97197 9.99094L1.97197 15.6972H0.933691C0.574706 15.6972 0.283691 15.9882 0.283691 16.3472C0.283691 16.7062 0.574706 16.9972 0.933691 16.9972H2.92149C2.92133 16.9972 2.92165 16.9972 2.92149 16.9972H4.92197C4.92174 16.9972 4.9222 16.9972 4.92197 16.9972H7.99919C7.99889 16.9972 7.99949 16.9972 7.99919 16.9972H10.0001C10.0004 16.9972 10.0008 16.9972 10.0011 16.9972H13.0769C13.0773 16.9972 13.0777 16.9972 13.0781 16.9972H15.0781C15.0785 16.9972 15.0789 16.9972 15.0794 16.9972H17.0665C17.4255 16.9972 17.7165 16.7062 17.7165 16.3472C17.7165 15.9882 17.4255 15.6972 17.0665 15.6972H16.0281ZM14.7281 15.6972V7.99094C14.7281 7.63196 14.4371 7.34094 14.0781 7.34094C13.7191 7.34094 13.4281 7.63196 13.4281 7.99094V15.6972H14.7281ZM3.27197 15.6972L3.27197 9.99094C3.27197 9.63196 3.56298 9.34094 3.92197 9.34094C4.28095 9.34094 4.57197 9.63196 4.57197 9.99094V15.6972H3.27197ZM8.35009 15.6972H9.65009V12.5534C9.65009 12.1945 9.35908 11.9034 9.00009 11.9034C8.64111 11.9034 8.35009 12.1945 8.35009 12.5534V15.6972Z" fill="#5095EC"/>
<path fill-rule="evenodd" clip-rule="evenodd" d="M16.0781 2.69092C16.0781 3.79549 15.1827 4.69092 14.0781 4.69092C13.7419 4.69092 13.4251 4.60798 13.1471 4.46145L10.8606 6.58062C10.8549 6.56614 10.849 6.55174 10.8429 6.53743C10.9441 6.7767 11.0001 7.03978 11.0001 7.31592C11.0001 8.42049 10.1047 9.31592 9.00009 9.31592C7.89552 9.31592 7.00009 8.42049 7.00009 7.31592C7.00009 7.2509 7.00319 7.1866 7.00926 7.12317L5.25504 6.18188C4.90124 6.49844 4.43408 6.69092 3.92196 6.69092C2.81739 6.69092 1.92196 5.79549 1.92196 4.69092C1.92196 3.58635 2.81739 2.69092 3.92196 2.69092C5.02653 2.69092 5.92196 3.58635 5.92196 4.69092C5.92196 4.81259 5.9111 4.93173 5.89028 5.04741L7.55032 5.93817C7.51794 5.97224 7.48674 6.00745 7.45679 6.04373C7.82362 5.59924 8.37877 5.31592 9.00009 5.31592C9.37046 5.31592 9.71731 5.41659 10.0148 5.59206C10.0148 5.59206 10.0148 5.59206 10.0148 5.59206L12.2554 3.51538C12.1415 3.26399 12.0781 2.98486 12.0781 2.69092C12.0781 1.58635 12.9735 0.690918 14.0781 0.690918C15.1827 0.690918 16.0781 1.58635 16.0781 2.69092ZM14.7781 2.69092C14.7781 3.07752 14.4647 3.39092 14.0781 3.39092C13.6915 3.39092 13.3781 3.07752 13.3781 2.69092C13.3781 2.30432 13.6915 1.99092 14.0781 1.99092C14.4647 1.99092 14.7781 2.30432 14.7781 2.69092ZM4.62196 4.69092C4.62196 5.07752 4.30856 5.39092 3.92196 5.39092C3.53536 5.39092 3.22196 5.07752 3.22196 4.69092C3.22196 4.30432 3.53536 3.99092 3.92196 3.99092C4.30856 3.99092 4.62196 4.30432 4.62196 4.69092ZM9.00009 8.01592C9.38669 8.01592 9.70009 7.70252 9.70009 7.31592C9.70009 6.92932 9.38669 6.61592 9.00009 6.61592C8.61349 6.61592 8.30009 6.92932 8.30009 7.31592C8.30009 7.70252 8.61349 8.01592 9.00009 8.01592Z" fill="#5095EC"/>
</svg>
