<svg width="16" height="16" viewBox="0 0 16 16" fill="none" xmlns="http://www.w3.org/2000/svg">
<path d="M8.54167 4.79453C8.54167 4.49538 8.29915 4.25286 8 4.25286C7.70085 4.25286 7.45833 4.49538 7.45833 4.79453V8.54453C7.45833 8.84368 7.70085 9.0862 8 9.0862H11.3333C11.6325 9.0862 11.875 8.84368 11.875 8.54453C11.875 8.24538 11.6325 8.00286 11.3333 8.00286H8.54167V4.79453Z" fill="#505050"/>
<path fill-rule="evenodd" clip-rule="evenodd" d="M0.5 8C0.5 3.85786 3.85786 0.5 8 0.5C12.1421 0.5 15.5 3.85786 15.5 8C15.5 12.1421 12.1421 15.5 8 15.5C3.85786 15.5 0.5 12.1421 0.5 8ZM8 1.58333C4.45617 1.58333 1.58333 4.45617 1.58333 8C1.58333 11.5438 4.45617 14.4167 8 14.4167C11.5438 14.4167 14.4167 11.5438 14.4167 8C14.4167 4.45617 11.5438 1.58333 8 1.58333Z" fill="#505050"/>
</svg>
